<svg width="1200" height="760" viewBox="0 0 1200 760" fill="none" xmlns="http://www.w3.org/2000/svg">
  <rect width="1200" height="760" rx="24" fill="#EAF2FB"/>
  <rect x="36" y="32" width="1128" height="696" rx="20" fill="#FFFFFF" stroke="#CFE0F4" stroke-width="2"/>
  <rect x="68" y="72" width="390" height="22" rx="8" fill="#1D3F67"/>
  <rect x="68" y="108" width="720" height="14" rx="7" fill="#95B4D8"/>
  <rect x="68" y="166" width="1060" height="190" rx="16" fill="#F8FBFF" stroke="#D6E4F5"/>
  <rect x="96" y="196" width="260" height="36" rx="10" fill="#0E4C82"/>
  <rect x="370" y="196" width="240" height="36" rx="10" fill="#ECF3FC"/>
  <rect x="624" y="196" width="280" height="36" rx="10" fill="#ECF3FC"/>
  <rect x="918" y="196" width="182" height="36" rx="10" fill="#ECF3FC"/>
  <rect x="96" y="252" width="1004" height="16" rx="8" fill="#A9C3E2"/>
  <rect x="96" y="280" width="930" height="16" rx="8" fill="#A9C3E2"/>
  <rect x="96" y="308" width="840" height="16" rx="8" fill="#A9C3E2"/>
  <rect x="68" y="382" width="1060" height="306" rx="16" fill="#F8FBFF" stroke="#D6E4F5"/>
  <rect x="96" y="414" width="260" height="106" rx="14" fill="#FFF8E9" stroke="#F5DFAE"/>
  <rect x="374" y="414" width="260" height="106" rx="14" fill="#FFFFFF" stroke="#D6E4F5"/>
  <rect x="652" y="414" width="260" height="106" rx="14" fill="#FFFFFF" stroke="#D6E4F5"/>
  <rect x="930" y="414" width="170" height="106" rx="14" fill="#FFFFFF" stroke="#D6E4F5"/>
  <rect x="96" y="548" width="240" height="14" rx="7" fill="#274E7D"/>
  <rect x="96" y="574" width="650" height="14" rx="7" fill="#A9C3E2"/>
  <rect x="96" y="598" width="620" height="14" rx="7" fill="#A9C3E2"/>
  <rect x="96" y="622" width="600" height="14" rx="7" fill="#A9C3E2"/>
  <rect x="770" y="548" width="330" height="88" rx="12" fill="#EEF5FF" stroke="#CFE0F4" stroke-dasharray="6 6"/>
  <text x="68" y="708" fill="#506888" font-family="Arial, sans-serif" font-size="18">Screenshot 3: Medium severity path and analyst handoff ticket block</text>
</svg>
