<svg width="1200" height="760" viewBox="0 0 1200 760" fill="none" xmlns="http://www.w3.org/2000/svg">
  <rect width="1200" height="760" rx="24" fill="#E9F3FB"/>
  <rect x="36" y="32" width="1128" height="696" rx="20" fill="#FFFFFF" stroke="#CFE0F4" stroke-width="2"/>
  <rect x="68" y="72" width="420" height="22" rx="8" fill="#1D3F67"/>
  <rect x="68" y="108" width="620" height="14" rx="7" fill="#95B4D8"/>
  <rect x="68" y="168" width="1060" height="520" rx="16" fill="#F8FBFF" stroke="#D6E4F5"/>
  <rect x="102" y="202" width="260" height="112" rx="14" fill="#FFF0F1" stroke="#F2C8CB"/>
  <rect x="386" y="202" width="260" height="112" rx="14" fill="#FFFFFF" stroke="#D6E4F5"/>
  <rect x="670" y="202" width="260" height="112" rx="14" fill="#FFFFFF" stroke="#D6E4F5"/>
  <rect x="954" y="202" width="140" height="112" rx="14" fill="#FFFFFF" stroke="#D6E4F5"/>
  <rect x="102" y="342" width="420" height="18" rx="9" fill="#254D7A"/>
  <rect x="102" y="372" width="860" height="16" rx="8" fill="#A9C3E2"/>
  <rect x="102" y="400" width="790" height="16" rx="8" fill="#A9C3E2"/>
  <rect x="102" y="428" width="820" height="16" rx="8" fill="#A9C3E2"/>
  <rect x="102" y="472" width="380" height="16" rx="8" fill="#254D7A"/>
  <rect x="102" y="500" width="760" height="16" rx="8" fill="#A9C3E2"/>
  <rect x="102" y="528" width="740" height="16" rx="8" fill="#A9C3E2"/>
  <rect x="102" y="556" width="690" height="16" rx="8" fill="#A9C3E2"/>
  <rect x="102" y="600" width="992" height="62" rx="12" fill="#EEF5FF" stroke="#CFE0F4" stroke-dasharray="6 6"/>
  <rect x="954" y="342" width="140" height="216" rx="12" fill="#FFF0F1" stroke="#F2C8CB"/>
  <rect x="972" y="364" width="104" height="24" rx="8" fill="#C62835"/>
  <rect x="972" y="404" width="104" height="12" rx="6" fill="#DF8B92"/>
  <rect x="972" y="424" width="104" height="12" rx="6" fill="#DF8B92"/>
  <rect x="972" y="444" width="96" height="12" rx="6" fill="#DF8B92"/>
  <text x="68" y="708" fill="#506888" font-family="Arial, sans-serif" font-size="18">Screenshot 2: Critical severity outcome with SLA and escalation queue</text>
</svg>
