<svg xmlns="http://www.w3.org/2000/svg" viewBox="0 0 64 64" role="img" aria-label="GitHub">
  <rect width="64" height="64" rx="14" fill="#171a18"/>
  <path d="M32 13c-10.6 0-19.2 8.6-19.2 19.2 0 8.4 5.5 15.6 13.1 18.1 1 .2 1.3-.4 1.3-.9v-3.3c-5.3 1.1-6.4-2.3-6.4-2.3-.9-2.2-2.1-2.8-2.1-2.8-1.7-1.2.1-1.2.1-1.2 1.9.1 2.9 2 2.9 2 1.7 2.9 4.5 2.1 5.6 1.6.2-1.2.7-2.1 1.2-2.6-4.3-.5-8.8-2.1-8.8-9.5 0-2.1.8-3.8 2-5.2-.2-.5-.9-2.5.2-5.1 0 0 1.6-.5 5.3 2a18.3 18.3 0 0 1 9.6 0c3.7-2.5 5.3-2 5.3-2 1.1 2.6.4 4.6.2 5.1 1.2 1.4 2 3.1 2 5.2 0 7.4-4.5 9-8.8 9.5.7.6 1.3 1.8 1.3 3.6v5c0 .5.3 1.1 1.3.9 7.6-2.5 13.1-9.7 13.1-18.1C51.2 21.6 42.6 13 32 13Z" fill="#fff"/>
</svg>
